<?xml version="1.0" standalone="no"?>
<!DOCTYPE svg PUBLIC "-//W3C//DTD SVG 20010904//EN"
 "http://www.w3.org/TR/2001/REC-SVG-20010904/DTD/svg10.dtd">
<svg version="1.0" xmlns="http://www.w3.org/2000/svg"
 width="700.000000pt" height="700.000000pt" viewBox="0 0 700.000000 700.000000"
 preserveAspectRatio="xMidYMid meet">
<metadata>
Created by potrace 1.14, written by Peter Selinger 2001-2017
</metadata>
<g transform="translate(0.000000,700.000000) scale(0.100000,-0.100000)"
fill="#000000" stroke="none">
<path d="M1229 6826 c-1 -1 -2 -1480 -3 -3288 l-2 -3288 21 -1 c27 -1 935 -1
1007 0 l57 1 0 1288 c0 708 1 1307 1 1332 l0 45 633 1 c551 0 892 7 954 18 10
2 45 7 78 10 33 4 74 9 90 12 17 3 44 7 60 10 17 2 53 9 80 14 28 6 60 12 72
15 61 11 228 61 313 92 213 79 476 234 632 371 47 41 173 172 209 217 114 142
239 386 304 595 56 177 86 372 88 569 1 114 -7 274 -17 326 -2 11 -7 40 -11
65 -53 346 -235 709 -479 955 -263 265 -584 443 -985 545 -121 30 -137 34
-236 49 -100 16 -137 21 -290 37 -36 4 -2567 13 -2576 10z m2516 -893 c162
-21 166 -22 255 -46 279 -78 468 -218 585 -432 88 -161 127 -332 128 -565 2
-209 -17 -333 -73 -478 -114 -295 -345 -488 -680 -566 -104 -24 -137 -29 -255
-42 -82 -9 -1386 -11 -1391 -2 -4 6 -7 1392 -4 2024 l0 122 668 -1 c487 0 694
-4 767 -14z"/>
</g>
</svg>
