<svg width="156" height="30" viewBox="0 0 156 30" fill="none" xmlns="http://www.w3.org/2000/svg">
<path d="M18.4489 14.0837C17.79 15.3397 16.7193 16.3693 15.2368 17.1517C13.7749 17.9341 11.8806 18.3253 9.59506 18.3253H4.57104V29.6088H0V1.81195H9.61565C11.757 1.81195 13.569 2.18258 15.0309 2.90323C16.5134 3.64448 17.6253 4.63282 18.3459 5.88882C19.0872 7.14483 19.4372 8.54496 19.4372 10.0892C19.4372 11.51 19.1078 12.8483 18.4283 14.0837H18.4489ZM13.4866 13.4249C14.3514 12.6424 14.7632 11.5306 14.7632 10.0892C14.7632 7.04188 13.0336 5.5182 9.59506 5.5182H4.57104V14.6191H9.61565C11.3452 14.6191 12.6424 14.2279 13.5072 13.4454L13.4866 13.4249Z" fill="#F1F1F1"/>
<path d="M43.8779 20.302H27.0351C27.1586 22.0728 27.8175 23.4729 28.9911 24.5436C30.1648 25.6143 31.6061 26.1496 33.3151 26.1496C35.7653 26.1496 37.5155 25.1201 38.5244 23.0611H43.4455C42.7866 25.0995 41.5718 26.7467 39.8216 28.0439C38.0715 29.3411 35.9095 29.9794 33.3151 29.9794C31.2149 29.9794 29.3206 29.5058 27.6528 28.5587C25.985 27.6115 24.6672 26.2732 23.72 24.5642C22.7729 22.8346 22.2993 20.8373 22.2993 18.5724C22.2993 16.3075 22.7523 14.3102 23.6789 12.5807C24.6054 10.8511 25.9026 9.53329 27.5704 8.58614C29.2382 7.65958 31.1531 7.186 33.3151 7.186C35.4771 7.186 37.2478 7.63899 38.8745 8.54496C40.5011 9.45093 41.7777 10.7275 42.6837 12.3747C43.5896 14.022 44.0426 15.8957 44.0426 18.0371C44.0426 18.8607 43.9809 19.6225 43.8779 20.2814V20.302ZM39.2657 16.6163C39.2451 14.9279 38.648 13.5896 37.4537 12.5807C36.2595 11.5717 34.8182 11.057 33.0886 11.057C31.5237 11.057 30.1648 11.5511 29.0529 12.5601C27.941 13.569 27.2616 14.9074 27.0557 16.6163H39.2657Z" fill="#F1F1F1"/>
<path d="M53.8641 11.2835V23.4935C53.8641 24.3171 54.0494 24.9142 54.4406 25.2848C54.8318 25.6349 55.4907 25.8202 56.4173 25.8202H59.2175V29.6294H55.6142C53.5552 29.6294 51.9903 29.1558 50.8991 28.188C49.8078 27.2203 49.2518 25.6554 49.2518 23.5141V11.2835H46.6575V7.55661H49.2518V2.07961H53.8641V7.5772H59.2381V11.304H53.8641V11.2835Z" fill="#F1F1F1"/>
<path d="M72.1482 18.6136L82.3198 29.6294H76.1633L67.989 20.1373V29.6294H63.418V0H67.989V17.2135L75.9986 7.55662H82.3198L72.1482 18.6136Z" fill="#F1F1F1"/>
<path d="M89.5264 28.5793C87.838 27.6321 86.5202 26.2937 85.573 24.5848C84.6053 22.8552 84.1317 20.8579 84.1317 18.593C84.1317 16.3281 84.6259 14.372 85.6142 12.6218C86.6025 10.8716 87.9409 9.55387 89.6499 8.62731C91.3589 7.70075 93.2738 7.22717 95.374 7.22717C97.4742 7.22717 99.3891 7.70075 101.098 8.62731C102.807 9.55387 104.145 10.8922 105.134 12.6218C106.122 14.3514 106.616 16.3487 106.616 18.593C106.616 20.8373 106.102 22.814 105.093 24.5642C104.084 26.3143 102.704 27.6321 100.954 28.5793C99.2038 29.5264 97.2683 30 95.1681 30C93.0679 30 91.1942 29.5264 89.5264 28.5793ZM98.4831 25.2025C99.5126 24.6465 100.336 23.8023 100.975 22.6699C101.613 21.5374 101.942 20.1784 101.942 18.593C101.942 17.0075 101.633 15.628 101.016 14.5367C100.398 13.4248 99.595 12.6012 98.5655 12.0247C97.5566 11.4688 96.4653 11.1805 95.2916 11.1805C94.118 11.1805 93.0267 11.4688 92.0384 12.0247C91.0294 12.5806 90.247 13.4248 89.6499 14.5367C89.0528 15.6486 88.7645 17.0075 88.7645 18.593C88.7645 20.9609 89.3616 22.814 90.5765 24.0906C91.7913 25.3878 93.315 26.0261 95.1681 26.0261C96.3417 26.0261 97.433 25.7378 98.4625 25.1819L98.4831 25.2025Z" fill="#F1F1F1"/>
<path d="M119.671 25.5525L125.909 7.57721H130.748L122.347 29.6294H116.912L108.552 7.57721H113.432L119.671 25.5525Z" fill="#F1F1F1"/>
<path d="M134.084 12.6218C135.01 10.9128 136.266 9.59506 137.852 8.62732C139.437 7.68016 141.187 7.20659 143.123 7.20659C144.852 7.20659 146.376 7.55662 147.673 8.2361C148.971 8.91558 150 9.75978 150.782 10.7687V7.55662H155.395V29.6294H150.782V26.3555C150 27.4056 148.95 28.2704 147.612 28.9499C146.273 29.6294 144.75 30 143.041 30C141.146 30 139.417 29.5058 137.831 28.5381C136.246 27.5704 135.01 26.2114 134.084 24.4612C133.157 22.7111 132.704 20.7344 132.704 18.5106C132.704 16.2869 133.157 14.3308 134.084 12.6218ZM149.815 14.6191C149.197 13.5072 148.373 12.6424 147.344 12.0659C146.335 11.4894 145.244 11.1805 144.07 11.1805C142.896 11.1805 141.805 11.4688 140.796 12.0453C139.787 12.6218 138.964 13.466 138.325 14.5779C137.687 15.6898 137.378 17.0076 137.378 18.5312C137.378 20.0549 137.687 21.3933 138.325 22.5257C138.943 23.6788 139.787 24.5436 140.817 25.1407C141.846 25.7378 142.938 26.0467 144.07 26.0467C145.203 26.0467 146.335 25.7584 147.344 25.1613C148.353 24.5848 149.176 23.72 149.815 22.5875C150.432 21.455 150.762 20.1167 150.762 18.593C150.762 17.0693 150.453 15.7515 149.815 14.6191Z" fill="#F1F1F1"/>
</svg>
