<svg width="51" height="99" viewBox="0 0 51 99" fill="none" xmlns="http://www.w3.org/2000/svg">
<path d="M25.5 0C32.5044 0 38.8803 2.90358 43.5028 7.57482L43.5143 7.58834C48.1329 12.2615 51 18.7081 51 25.7903V55.0039C51 62.088 48.1291 68.5346 43.5104 73.2097L43.499 73.2213C38.8765 77.8925 32.5025 80.7922 25.5 80.7922C18.4956 80.7922 12.1197 77.8906 7.49719 73.2174L7.48573 73.2058C2.86708 68.5307 0 62.0841 0 55.0039V25.7903C0 18.7062 2.8709 12.2596 7.48955 7.58254L7.50101 7.57095C12.1235 2.90165 18.4975 0 25.5 0ZM18.87 86.4159L25.4981 93.1233L32.1395 86.4159L35.0353 89.36L25.4885 99L15.959 89.36L18.87 86.4159ZM25.5 4.16509C19.6149 4.16509 14.2685 6.5973 10.4006 10.5112C6.52112 14.4329 4.1182 19.8402 4.1182 25.7903V55.0039C4.1182 60.954 6.52112 66.3613 10.3929 70.2752C14.2685 74.1969 19.6149 76.6271 25.5 76.6271C31.3851 76.6271 36.7315 74.1969 40.5994 70.281C44.477 66.3613 46.8818 60.954 46.8818 55.0039V25.7903C46.8818 19.8402 44.477 14.4329 40.6071 10.519C36.7315 6.5973 31.3851 4.16509 25.5 4.16509Z" fill="#F1F1F1"/>
</svg>
